# xmcd CD database file
#
# Track frame offsets:
#	150
#	19848
#	38553
#	56643
#	77587
#	98423
#	117232
#	139460
#	163564
#	182529
#	204761
#	226250
#	246658
#	266723
#	287258
#
# Disc length: 4095 seconds
#
# Revision: 0
# Processed by: cddbd v1.5.2PL0 Copyright (c) Steve Scherf et al.
# Submitted via: CDex 1.51
#
DISCID=c10ffd0f
DTITLE=Ron Fattorusso - Up All Night
DYEAR=2005
DGENRE=Jazz
TTITLE0=Up All Night
TTITLE1=Whatever You Want
TTITLE2=I Know You're There
TTITLE3=Jamaican Blue
TTITLE4=No Es Facil
TTITLE5=Grover, Thanks
TTITLE6=Shuffle Bop
TTITLE7=Sands of Time
TTITLE8=Wedding Day Song
TTITLE9=Just Standing Around
TTITLE10=Going With The Grain
TTITLE11=In My Heart
TTITLE12=Reaching It Together
TTITLE13=What A Pleasure
TTITLE14=Soft Breeze
EXTD=YEAR: 2005
EXTT0=
EXTT1=
EXTT2=
EXTT3=
EXTT4=
EXTT5=
EXTT6=
EXTT7=
EXTT8=
EXTT9=
EXTT10=
EXTT11=
EXTT12=
EXTT13=
EXTT14=
PLAYORDER=
